<?xml version="1.0" encoding="utf-8"?>
<!-- Generator: Adobe Illustrator 26.3.1, SVG Export Plug-In . SVG Version: 6.00 Build 0)  -->
<svg version="1.1" id="_イヤー_2" xmlns="http://www.w3.org/2000/svg" xmlns:xlink="http://www.w3.org/1999/xlink" x="0px"
	 y="0px" viewBox="0 0 380 170" style="enable-background:new 0 0 380 170;" xml:space="preserve">
<style type="text/css">
	.st0{fill:#222222;}
	.st1{opacity:0.8;}
	.st2{fill:#EEEEEE;stroke:#000000;stroke-width:2;stroke-miterlimit:10;}
</style>
<g>
	<g>
		<path class="st0" d="M14,19.3c-0.1-0.4-0.4-1-0.6-1.5l-3,0.2v12H8.7V18c-1.6,0.1-3.1,0.1-4.2,0.2c0,0.2-0.2,0.3-0.4,0.4l-0.5-2.1
			h2.1c0.6-0.7,1.3-1.6,1.9-2.5c-0.9-1.3-2.4-2.9-3.7-4.1l1-1.2c0.3,0.2,0.6,0.5,0.8,0.8c1-1.7,2.1-3.9,2.8-5.6l2,0.9
			C10.3,4.9,10.2,5,9.9,5c-0.8,1.6-2.1,3.9-3.1,5.5c0.7,0.7,1.4,1.5,1.8,2.1c1.3-1.9,2.5-3.9,3.3-5.5l2,0.9
			c-0.1,0.1-0.3,0.2-0.6,0.2c-1.5,2.4-3.8,5.7-5.8,8.1l5.2-0.1c-0.5-0.9-1.1-1.9-1.7-2.8c1.1-0.5,1.3-0.6,1.4-0.6
			c1.3,1.8,2.7,4.1,3.2,5.7L14,19.3L14,19.3z M7.5,20.6c-0.1,0.2-0.2,0.3-0.5,0.3c-0.4,2.4-1,5.1-1.9,6.7c-0.4-0.2-1-0.5-1.4-0.7
			c0.8-1.6,1.4-4.3,1.8-6.8L7.5,20.6z M13.1,19.9c0.8,1.7,1.6,3.9,1.9,5.4c-0.3,0.1-0.7,0.2-1.6,0.6c-0.2-1.5-1-3.7-1.8-5.4
			L13.1,19.9z M20.5,18.4c0,0.2-0.2,0.3-0.5,0.4c-0.4,5.5-2.1,9.3-6,11.1c-0.3-0.4-0.8-1-1.3-1.2c3.6-1.7,5.2-5.2,5.4-10.5
			L20.5,18.4L20.5,18.4z M15,15.4l2.2-0.1c0.8-1.6,1.8-4,2.4-5.8h-5.1V7.8h6.6V3.9L23.5,4c0,0.2-0.2,0.3-0.6,0.4v3.4h7v1.7h-8.6
			l0.7,0.2C22,9.9,21.8,10,21.5,10c-0.6,1.5-1.5,3.6-2.4,5.3c2.2-0.1,4.7-0.2,7.2-0.3c-0.8-1.1-1.6-2.1-2.4-3l1.5-0.8
			c1.8,1.9,3.8,4.6,4.6,6.3c-0.3,0.2-0.7,0.4-1.5,1c-0.3-0.6-0.7-1.2-1.1-2c-4.2,0.3-8.4,0.5-11.2,0.6c-0.1,0.2-0.3,0.3-0.5,0.4
			L15,15.4L15,15.4z M25,27.1c0,0.7,0.1,0.8,0.7,0.8h2c0.6,0,0.7-0.4,0.8-3.5c0.4,0.3,1.1,0.6,1.6,0.7c-0.2,3.6-0.6,4.5-2.2,4.5
			h-2.4c-1.8,0-2.2-0.6-2.2-2.5v-9.2l2.3,0.2c0,0.2-0.2,0.3-0.6,0.4L25,27.1L25,27.1z"/>
	</g>
	<g>
		<path class="st0" d="M47.6,9.9v3.4h6.8v1.7h-6.8v2.8h5.7v7.9c0,1.8-0.8,2-4.2,2c-0.1-0.5-0.3-1.1-0.5-1.6c0.6,0,1.2,0,1.6,0
			c1.2,0,1.3,0,1.3-0.4v-6.2h-4v10.3h-1.8V19.6H42v8.1h-1.7v-9.8h5.5v-2.8h-7.1v-1.7h7.1V9.9H42c-0.4,1.3-0.8,2.5-1.2,3.4
			c-0.4-0.3-1.1-0.6-1.5-0.8c0.9-1.9,1.6-5,2.1-7.9l2.2,0.6c-0.1,0.2-0.2,0.3-0.6,0.3c-0.1,0.8-0.3,1.7-0.5,2.6h3.3V3.9l2.3,0.2
			c0,0.2-0.2,0.3-0.6,0.4v3.7h5.7v1.8H47.6L47.6,9.9z M58.1,7.4c0,0.2-0.2,0.3-0.5,0.4V23h-1.8V7.3L58.1,7.4z M61.7,4.4L64,4.6
			c0,0.2-0.2,0.3-0.5,0.4v22.5c0,2.4-1.3,2.5-5.6,2.5c-0.1-0.5-0.4-1.3-0.6-1.9c1,0,2,0.1,2.7,0.1c1.5,0,1.7,0,1.7-0.7L61.7,4.4
			L61.7,4.4z"/>
	</g>
	<g>
		<path class="st0" d="M73.5,10.3V8.7h10.3v1.6H73.5z M82.9,20.3v8.2h-6.4v1.3h-1.7v-9.6C74.8,20.3,82.9,20.3,82.9,20.3z M82.8,12.6
			v1.5h-8v-1.5H82.8z M74.8,18v-1.5h8V18H74.8z M82.7,4.9v1.5H75V4.9H82.7z M81.2,21.9h-4.8v5h4.8C81.2,27,81.2,21.9,81.2,21.9z
			 M97,15.7h2.8v1.7h-16v-1.7h3.8c0.2-1.2,0.5-2.7,0.8-4.2h-3.1V9.8h3.4c0.2-1.1,0.3-2.2,0.5-3.1h-4.4V5h13.9v1.7h-7.7l-0.5,3.1H97
			L97,15.7L97,15.7z M86.1,29.9V19.7h11.8v10H96v-1.1h-8.2v1.3L86.1,29.9L86.1,29.9z M96,21.4h-8.2v5.5H96V21.4z M95.2,11.5h-4.8
			c-0.2,1.5-0.5,3-0.8,4.2h5.6L95.2,11.5L95.2,11.5z"/>
	</g>
	<g>
		<path class="st0" d="M133.9,25.1h-9.6c2.5,1.6,6.4,2.7,10.1,3.1c-0.4,0.3-0.8,1-1,1.4c-4.3-0.7-8.7-2.3-11.2-4.5v4.8h-1.9v-4.6
			c-2.7,2.1-7.2,3.7-11,4.4c-0.2-0.4-0.7-1-1-1.3c3.5-0.5,7.4-1.7,10-3.3h-9.5v-1.4h11.6v-1.3h-7.6v-6.6h17.1v6.6h-7.6v1.3h11.6
			V25.1z M134.1,10.4v1.4h-25.4v-1.4H126l0.3-1.3h-11.1L115,9.7l-1.8-0.2c0.6-1.5,1.4-3.8,1.9-5.6l2.3,0.4c-0.1,0.2-0.2,0.3-0.6,0.3
			l-0.2,0.7h11.1l0.4-0.1l1.2,0.3c-0.1,0.1-0.1,0.3-0.1,0.4c-0.2,1.2-0.7,2.9-1.1,4.5L134.1,10.4L134.1,10.4z M133.2,17.3h-1.7v-2.9
			h-20.4v2.9h-1.7v-4.1h23.8V17.3z M114.5,17v1.5h5.8V17H114.5z M114.5,21.2h5.8v-1.6h-5.8V21.2z M116.1,6.4c-0.1,0.5-0.3,1-0.5,1.4
			h11l0.3-1.4C127,6.4,116.1,6.4,116.1,6.4z M128,18.5V17h-5.8v1.5H128z M128,21.2v-1.6h-5.8v1.6H128z"/>
	</g>
	<g>
		<path class="st0" d="M147.3,13.8c-1.1,1.8-2.4,3.4-3.6,4.8c-0.2-0.5-0.7-1.3-1-1.8c2.8-2.9,5.6-7.8,7.2-12.8l2.3,0.8
			c-0.1,0.2-0.3,0.3-0.6,0.3c-0.8,2-1.6,4-2.7,5.9l0.8,0.2c0,0.2-0.2,0.3-0.5,0.4v18.3h-1.9V13.8z M169.3,10.5h-9v4.3h8.3v1.8h-8.3
			v4.5h8.7v1.8h-8.7v7h-1.9V10.5h-2.6c-1.2,2.4-2.5,4.7-3.9,6.3c-0.3-0.4-1-1-1.4-1.3c2.3-2.6,4.4-7,5.8-11.3l2.4,0.7
			c-0.1,0.2-0.3,0.3-0.7,0.3c-0.4,1.1-0.8,2.3-1.3,3.4h12.7L169.3,10.5L169.3,10.5z"/>
	</g>
	<g>
		<path class="st0" d="M194.7,10.8c0.3,3.8,0.9,7.4,1.8,10.4c1.6-2.4,2.8-5,3.8-8l2.3,0.7c-0.1,0.2-0.3,0.3-0.6,0.3
			c-1.1,3.4-2.7,6.5-4.7,9.2c1.1,3,2.6,4.8,4.2,4.8c0.9,0,1.3-1.5,1.5-5.4c0.4,0.4,1.1,0.8,1.6,1c-0.4,4.8-1.1,6.2-3.2,6.2
			c-2.3,0-4-2-5.4-5c-1.8,2-3.9,3.7-6.3,5.1c-0.2-0.4-0.8-1.1-1.2-1.5c2.6-1.4,4.8-3.2,6.8-5.6c-1.1-3.4-1.9-7.7-2.3-12.2h-10.3v3.8
			h6.4l0.4,0l1,0.1v0.6c-0.1,6.7-0.3,9.1-0.9,9.9c-0.7,0.8-1.4,0.8-2.9,0.8c-0.6,0-1.4,0-2.1-0.1c-0.1-0.6-0.2-1.3-0.6-1.8
			c1.4,0.1,2.7,0.1,3.1,0.1c0.4,0,0.7-0.1,0.9-0.3c0.4-0.5,0.5-2.4,0.6-7.6h-6c0,2.8,0,9.4-3.1,13.7c-0.3-0.4-1.1-1-1.5-1.2
			c2.5-3.4,2.8-8.3,2.8-12V8.9h12c-0.1-1.7-0.2-3.3-0.2-5l2.5,0.1c0,0.2-0.2,0.4-0.6,0.4c0,1.5,0,3,0.1,4.4h9.2v1.8
			C203.7,10.8,194.7,10.8,194.7,10.8z M197.6,4.1c1.8,0.9,4,2.3,5.1,3.3l-1.2,1.3c-1.1-1-3.3-2.5-5.1-3.4L197.6,4.1L197.6,4.1z"/>
	</g>
	<g>
		<path class="st0" d="M234,14.7l1.4,0.8c-0.1,0.1-0.2,0.2-0.4,0.3c-1.6,3.8-4.2,6.7-7.4,8.9c3.1,1.7,6.9,2.9,11.3,3.5
			c-0.4,0.5-0.9,1.3-1.2,1.8c-4.6-0.7-8.6-2.1-11.9-4.2c-3.5,2-7.6,3.3-11.9,4.1c-0.2-0.5-0.7-1.4-1-1.8c4.1-0.7,7.9-1.8,11.3-3.4
			c-2.6-2-4.6-4.4-6.1-7.4l1.6-0.6h-4.4v-1.9h9.7v-4.6h-11.2V8.3h11.2V3.9l2.5,0.2c0,0.2-0.2,0.3-0.6,0.4v3.9h11.3v1.9h-11.3v4.6
			h6.9L234,14.7L234,14.7z M219.7,16.6c1.4,2.8,3.5,5.2,6.2,7c2.8-1.8,5.1-4.1,6.6-7C232.4,16.6,219.7,16.6,219.7,16.6z"/>
	</g>
	<g>
		<path class="st0" d="M256.1,18.1l-2.6,0.9v8.5c0,2.2-1.1,2.4-4.8,2.4c-0.1-0.5-0.3-1.3-0.6-1.8c0.6,0,1.2,0,1.7,0c2,0,2,0,2-0.6
			v-7.9l-3.2,1.1c0,0.2-0.2,0.4-0.4,0.4l-0.7-2.2c1.2-0.3,2.7-0.8,4.3-1.3v-6.3h-4V9.7h4V3.9l2.4,0.1c0,0.2-0.2,0.3-0.6,0.4v5.3h3.2
			v1.8h-3.2v5.7l2.3-0.7L256.1,18.1L256.1,18.1z M270.1,19.8l1.1,0.5c0,0.1-0.1,0.2-0.2,0.3c-0.8,2.4-2,4.2-3.6,5.6
			c1.9,1,4,1.7,6.4,2.1c-0.4,0.4-0.9,1.1-1.1,1.6c-2.4-0.5-4.7-1.4-6.6-2.5c-1.7,1.1-3.6,2-5.8,2.5c-0.2-0.4-0.7-1.1-1.1-1.4
			c2-0.5,3.8-1.1,5.4-2.1c-1.5-1.1-2.7-2.4-3.6-4l1.5-0.5c0.8,1.3,2,2.5,3.4,3.5c1.3-1.1,2.3-2.4,3-4H261c-1.1,3.5-2.7,6.4-4.9,8.4
			c-0.3-0.3-1-0.8-1.4-1.1c2.8-2.4,4.5-6.3,5.5-11.1h-3.8V16h4.1c0.1-0.8,0.2-1.6,0.4-2.5h-4.1V12h10.6l-0.3-0.1
			c1-1.3,2.1-3.4,2.7-4.9l2.1,0.8c-0.1,0.2-0.2,0.2-0.6,0.2c-0.6,1.2-1.6,2.8-2.6,4h3.2v1.6h-9.3c-0.1,0.8-0.2,1.6-0.4,2.5h11v1.6
			H262c-0.2,0.8-0.3,1.5-0.5,2.3h8.3L270.1,19.8L270.1,19.8z M271.9,5.4c-0.1,0-0.2,0.1-0.3,0.1c-0.1,0-0.2,0-0.2,0
			c-3.5,0.8-9.6,1.4-14.7,1.6c-0.1-0.5-0.2-1.1-0.4-1.5c5-0.3,11.1-0.9,14.4-1.7L271.9,5.4L271.9,5.4z M259.3,7.5
			c0.7,1.1,1.3,2.6,1.5,3.6l-1.5,0.5c-0.2-1-0.8-2.6-1.4-3.7C257.8,8,259.3,7.5,259.3,7.5z M264.5,7.1c0.5,1.2,0.8,2.8,0.9,3.8
			l-1.6,0.3c-0.1-1-0.4-2.6-0.8-3.9L264.5,7.1L264.5,7.1z"/>
	</g>
	<g>
		<path class="st0" d="M285.5,8.1c1.1,2.1,2.3,5.4,2.7,7.5l-1.9,0.6c-0.4-2-1.6-5.3-2.6-7.5L285.5,8.1z M306.4,8.4
			c-0.1,0.2-0.4,0.4-0.7,0.4c-2.9,9.9-7.5,15.9-16.3,19.8c-0.3-0.4-0.9-1.1-1.3-1.5c8.6-3.6,13-9.2,15.7-19.4
			C303.8,7.6,306.4,8.4,306.4,8.4z M294.3,6.5c0.6,2.3,1.3,5.8,1.5,7.9l-2,0.3c-0.2-2.2-0.8-5.6-1.5-7.9L294.3,6.5L294.3,6.5z"/>
	</g>
	<g>
		<path class="st0" d="M317.3,15.4h23.4v2h-22.3c-0.2,0.3-0.5,0.5-0.9,0.5L317.3,15.4L317.3,15.4z"/>
	</g>
	<g>
		<path class="st0" d="M358.2,9.1c0,0.2-0.3,0.4-0.6,0.5c-0.2,7.5-0.8,14.4-5.1,19.4c-0.5-0.3-1.1-0.8-1.7-1.1
			c4.2-4.5,4.7-11.5,4.8-19.1L358.2,9.1z M365.5,25.2c4.7-2.3,7.7-6.4,9.3-11.3c0.4,0.4,1.3,0.8,1.7,1.1c-2,5.7-5.5,9.8-11.4,12.7
			c-0.1,0.2-0.3,0.5-0.5,0.6l-1.5-1.9l0.3-0.4V5.4l2.6,0.1c0,0.2-0.2,0.5-0.6,0.5L365.5,25.2L365.5,25.2z"/>
	</g>
</g>
<g>
	<g>
		<path class="st0" d="M234.6,69.7V55.9c0-5.6,1.7-9.7,7.9-9.7c5.6,0,7.4,3.6,7.4,9.1V57h-2.1v-1.6c0-4.6-1.1-7.3-5.3-7.3
			c-4.7,0-5.7,3.1-5.7,7.6V70c0,4.8,1.2,7.6,5.7,7.6s5.3-2.9,5.3-7.4v-2h2.1v1.6c0,5.6-1.6,9.5-7.4,9.5
			C236,79.4,234.6,75.1,234.6,69.7z"/>
	</g>
	<g>
		<path class="st0" d="M255,70.5v-6.2c0-5.8,1.2-8.8,5.8-8.8s5.8,3,5.8,8.8v6.2c0,5.8-1.2,8.8-5.8,8.8S255,76.3,255,70.5L255,70.5z
			 M264.5,70.6v-6.4c0-4.4-0.4-7.1-3.7-7.1s-3.7,2.7-3.7,7.1v6.4c0,4.4,0.3,7.1,3.7,7.1S264.5,75.1,264.5,70.6z"/>
	</g>
	<g>
		<path class="st0" d="M272.1,55.9h2.1v2.5c1.4-1.7,3.4-2.8,5.5-2.8s3.6,1.4,3.6,5V79h-2.1V60.8c0-2.8-1-3.6-2.4-3.6
			c-1.6,0-3.2,1-4.6,2.6V79h-2.1L272.1,55.9L272.1,55.9z"/>
	</g>
	<g>
		<path class="st0" d="M290.5,74.4V57.2h-3v-1.4h3v-7.4h2.1v7.4h3.9v1.4h-3.9v16.9c0,2.5,0.3,3.4,2,3.4c0.5,0,1.2-0.1,1.7-0.2V79
			c-0.6,0.2-1.5,0.2-2.2,0.2C290.9,79.2,290.5,77.1,290.5,74.4z"/>
	</g>
	<g>
		<path class="st0" d="M301.2,55.9h2.1V59c1.4-2.3,3.7-3.4,5.5-3.4c0.1,0,0.2,0,0.4,0v2.2c-0.2-0.1-0.6-0.1-0.9-0.1
			c-2.2,0-3.8,1-5,3V79h-2.1V55.9z"/>
	</g>
	<g>
		<path class="st0" d="M313,70.5v-6.2c0-5.8,1.2-8.8,5.8-8.8s5.8,3,5.8,8.8v6.2c0,5.8-1.2,8.8-5.8,8.8S313,76.3,313,70.5z
			 M322.5,70.6v-6.4c0-4.4-0.4-7.1-3.7-7.1s-3.7,2.7-3.7,7.1v6.4c0,4.4,0.3,7.1,3.7,7.1S322.5,75.1,322.5,70.6z"/>
	</g>
	<g>
		<rect x="330.5" y="46.6" class="st0" width="2.1" height="32.4"/>
	</g>
	<g>
		<rect x="339.3" y="46.6" class="st0" width="2.1" height="32.4"/>
	</g>
	<g>
		<path class="st0" d="M347.2,70.4v-6.2c0-7.2,2.3-8.8,5.9-8.8c4.3,0,5.7,2.6,5.7,9.2v2.2h-9.5v3.7c0,5.6,1.1,7.2,3.8,7.2
			c1.7,0,3.6-0.4,3.6-4.8v-1.7h2.1v1.5c0,4-1.4,6.6-5.7,6.6C349.4,79.3,347.2,77.6,347.2,70.4z M356.7,65.6v-1.8
			c0-4.1-0.4-6.7-3.6-6.7c-2.6,0-3.8,1.3-3.8,6.8v1.8C349.3,65.6,356.7,65.6,356.7,65.6z"/>
	</g>
	<g>
		<path class="st0" d="M363.7,69.5v-4.1c0-6.5,1.1-9.9,5.3-9.9c2,0,3.4,1.1,4.2,2.1v-11h2.1V79h-2.1v-1.8c-0.8,1-2.2,2.1-4.1,2.1
			C365.2,79.3,363.7,76.5,363.7,69.5L363.7,69.5z M373.2,75.7V59.1c-0.8-0.8-2.2-2-3.8-2c-3,0-3.6,2.3-3.6,7.7v4.8
			c0,5.6,0.7,8,3.6,8C370.9,77.7,372.3,76.8,373.2,75.7z"/>
	</g>
	<g>
		<polygon class="st0" points="233.2,86.3 235.4,86.3 242.1,114.9 248.4,86.3 250.5,86.3 243.1,118.7 241,118.7 233.2,86.3 		"/>
	</g>
	<g>
		<path class="st0" d="M252.9,110.2V104c0-5.8,1.2-8.8,5.8-8.8s5.8,3,5.8,8.8v6.2c0,5.8-1.2,8.8-5.8,8.8S252.9,116,252.9,110.2z
			 M262.4,110.3v-6.4c0-4.4-0.4-7.1-3.7-7.1s-3.7,2.7-3.7,7.1v6.4c0,4.4,0.3,7.1,3.7,7.1S262.4,114.7,262.4,110.3z"/>
	</g>
	<g>
		<path class="st0" d="M268.3,110v-5.4c0-6.8,1.3-9.4,5.8-9.4c4.8,0,5.6,3.2,5.6,7.5v0.9h-2v-0.9c0-4.7-1.1-5.9-3.6-5.9
			c-3.1,0-3.7,2-3.7,7.5v6c0,5,0.7,7.1,3.8,7.1s3.6-1.9,3.6-6.5V110h2v0.8c0,4.6-0.6,8.2-5.6,8.2S268.3,115,268.3,110z"/>
	</g>
	<g>
		<path class="st0" d="M283,114c0-4,1.6-5.4,9.4-9.1v-1.6c0-5-0.8-6.4-3.2-6.4c-1.8,0-3.7,0.7-3.7,4.4v0.6h-2.1
			c0-4.4,1.6-6.6,5.8-6.6c3.9,0,5.2,2.3,5.2,7.8v11.6c0,0.6,0,3.6,0.1,4h-1.8c-0.1-1.1-0.3-2.6-0.4-3.1c-0.7,1.9-2.5,3.4-4.8,3.4
			C284.9,119,283,117,283,114z M292.4,114v-7.6c-5.7,3-7.3,3.8-7.3,7.2c0,2.8,1.6,3.6,3,3.6C290.1,117.2,291.6,115.7,292.4,114z"/>
	</g>
	<g>
		<path class="st0" d="M301.1,116.7v1.9H299V86.3h2.1v11.2c0.8-1.1,2.3-2.3,4.4-2.3c4.3,0,5.2,3.7,5.2,9.5v4.4
			c0,6.5-1.3,9.9-5.4,9.9C303.4,119,302,117.8,301.1,116.7L301.1,116.7z M308.6,109.2v-4.5c0-5.5-0.5-7.9-3.5-7.9
			c-1.7,0-3.2,1.2-4,2.2v16.3c0.9,1.1,2.3,2.1,4,2.1C308,117.4,308.6,114.8,308.6,109.2L308.6,109.2z"/>
	</g>
	<g>
		<path class="st0" d="M314.8,114V95.5h2.1v18.2c0,2.8,1,3.6,2.4,3.6c1.6,0,3.4-1.2,4.8-2.8v-19h2.1v23.1h-2.1v-2.7
			c-1.5,1.9-3.5,3.1-5.7,3.1C316.3,119,314.8,117.7,314.8,114z"/>
	</g>
	<g>
		<rect x="331.2" y="86.3" class="st0" width="2.1" height="32.4"/>
	</g>
	<g>
		<path class="st0" d="M337.6,114c0-4,1.6-5.4,9.4-9.1v-1.6c0-5-0.8-6.4-3.2-6.4c-1.8,0-3.7,0.7-3.7,4.4v0.6h-2.1
			c0-4.4,1.6-6.6,5.8-6.6c3.9,0,5.2,2.3,5.2,7.8v11.6c0,0.6,0,3.6,0.1,4h-1.8c-0.1-1.1-0.3-2.6-0.4-3.1c-0.7,1.9-2.5,3.4-4.8,3.4
			C339.4,119,337.6,117,337.6,114z M347,114v-7.6c-5.7,3-7.3,3.8-7.3,7.2c0,2.8,1.6,3.6,3,3.6C344.7,117.2,346.2,115.7,347,114z"/>
	</g>
	<g>
		<path class="st0" d="M353.8,95.5h2.1v3.1c1.4-2.3,3.7-3.4,5.5-3.4c0.1,0,0.2,0,0.4,0v2.2c-0.2-0.1-0.6-0.1-0.9-0.1
			c-2.2,0-3.8,1-5,3v18.3h-2.1C353.8,118.7,353.8,95.5,353.8,95.5z"/>
	</g>
	<g>
		<path class="st0" d="M364.2,122.7c4.6,0,5-1.3,5-2.8c0-1-0.3-2.3-0.6-3.6l-4.9-20.8h2.1l4.6,21.1l4.4-21.1h2.1l-5.6,25
			c-0.6,2.7-2.4,3.9-6.1,3.9h-0.9L364.2,122.7L364.2,122.7z"/>
	</g>
	<g>
		<path class="st0" d="M235.2,125.9h7.1c6.4,0,8.3,4.1,8.3,9.3v13.4c0,5.6-1.8,9.6-8.1,9.6h-7.3V125.9L235.2,125.9z M242.4,156.6
			c5.2,0,6-3.8,6-8.2v-13c0-4.7-1.1-7.7-6.1-7.7h-4.9v28.9H242.4z"/>
	</g>
	<g>
		<path class="st0" d="M258.8,149.8v-6.2c0-7.2,2.3-8.8,5.9-8.8c4.3,0,5.7,2.6,5.7,9.2v2.2h-9.5v3.7c0,5.6,1.1,7.2,3.8,7.2
			c1.7,0,3.6-0.4,3.6-4.8v-1.7h2.1v1.5c0,4-1.4,6.6-5.7,6.6C261,158.7,258.8,156.9,258.8,149.8L258.8,149.8z M268.4,145v-1.8
			c0-4.1-0.4-6.7-3.6-6.7c-2.6,0-3.8,1.3-3.8,6.8v1.8L268.4,145L268.4,145z"/>
	</g>
	<g>
		<path class="st0" d="M277.6,152.1l1.8-0.5c0.3,3.9,1.8,5.5,4.4,5.5c2.3,0,3.7-1.4,3.7-3.8c0-1.6-1-3.4-3.4-5.4l-2.7-2.3
			c-2.3-2-3.3-3.6-3.3-5.9c0-3.2,2.1-4.9,5.2-4.9c3.4,0,5.1,2.4,5.2,6l-1.6,0.5c-0.1-3.6-1.5-4.9-3.6-4.9s-3.4,1-3.4,3.1
			c0,1.7,0.5,2.8,2.4,4.4l2.8,2.4c2,1.8,4.2,3.7,4.2,7s-2.2,5.3-5.6,5.3C280.1,158.7,277.9,156.2,277.6,152.1L277.6,152.1z"/>
	</g>
	<g>
		<path class="st0" d="M297.1,128.5h2.2v3.7h-2.2C297.1,132.2,297.1,128.5,297.1,128.5z M297.1,135.2h2.2v23.1h-2.2V135.2z"/>
	</g>
	<g>
		<path class="st0" d="M306.8,162.1c0-2.4,2.1-4.4,4.1-5.4c-2-0.5-2.8-1.2-2.8-2.6c0-1.5,1.2-2.7,2.9-4.2c-2.3-1.6-3-4.3-3-7.2
			c0-3.8,1.9-8,6.4-8c2.8,0,4.3,1.5,5.1,3.1c0.5-1,1.8-2.3,3.1-2.7l0.6-0.2l0.6,1.6c-1.4,0.3-2.9,1.3-3.7,2.3c0.4,1,0.8,3,0.8,3.9
			c0,4.6-1.8,8.1-6.4,8.1c-0.9,0-1.9-0.2-2.5-0.4c-1,1-2,2.2-2,3.2c0,0.8,0.6,1.2,1.9,1.5l3.8,0.7c3.8,0.7,6.1,2.2,6.1,5.2
			c0,3.6-3.5,5.1-7.4,5.1C309.4,166.2,306.8,164.9,306.8,162.1z M319.9,161.1c0-1.7-0.8-2.8-5.1-3.6l-2.5-0.4
			c-1.4,0.8-3.7,2.3-3.7,4.5c0,2,2,2.9,5.6,2.9C317.4,164.5,319.9,163.5,319.9,161.1L319.9,161.1z M318.9,142.8
			c0-2.4-0.8-6.4-4.4-6.4s-4.5,4.2-4.5,6.4c0,2.5,0.6,6.6,4.6,6.6S318.9,145.4,318.9,142.8z"/>
	</g>
	<g>
		<path class="st0" d="M329.7,135.2h2.1v2.5c1.4-1.7,3.4-2.8,5.5-2.8s3.6,1.4,3.6,5v18.4h-2.1v-18.2c0-2.8-1-3.6-2.4-3.6
			c-1.6,0-3.2,1-4.6,2.6v19.3h-2.1L329.7,135.2L329.7,135.2z"/>
	</g>
	<g>
		<path class="st0" d="M349,149.8v-6.2c0-7.2,2.3-8.8,5.9-8.8c4.3,0,5.7,2.6,5.7,9.2v2.2h-9.5v3.7c0,5.6,1.1,7.2,3.8,7.2
			c1.7,0,3.6-0.4,3.6-4.8v-1.7h2.1v1.5c0,4-1.4,6.6-5.7,6.6C351.2,158.7,349,156.9,349,149.8z M358.5,145v-1.8
			c0-4.1-0.4-6.7-3.6-6.7c-2.6,0-3.8,1.3-3.8,6.8v1.8L358.5,145L358.5,145z"/>
	</g>
	<g>
		<path class="st0" d="M368.9,135.2h2.1v3.1c1.4-2.3,3.7-3.4,5.5-3.4c0.1,0,0.2,0,0.4,0v2.2c-0.2-0.1-0.6-0.1-0.9-0.1
			c-2.2,0-3.8,1-5,3v18.3h-2.1V135.2z"/>
	</g>
</g>
<g class="st1">
	<path class="st2" d="M3.1,122.2V81.6c0-23.4,7.7-37.9,33.2-37.9S68,56.8,68,76.4v9.5H45.6V75.4c0-8-0.3-15.3-9.2-15.3
		s-9.9,7.6-9.9,16v51.5c0,9.7,1.8,15.8,9.9,15.8c8.8,0,9.2-7.6,9.2-15.8v-11.1H68v9.4c0,19.7-7,34-31.8,34S3.1,144.9,3.1,122.2z"/>
	<path class="st2" d="M76.6,45.1h20l13.4,78.4l12.6-78.4h20.9L122,158.5H98.2L76.6,45.1z"/>
	<path class="st2" d="M154.9,45.1h27.7c28.7,0,37.2,10.9,37.2,35.6v41.3c0,25.2-8.5,36.5-36.7,36.5h-28.3L154.9,45.1L154.9,45.1z
		 M182.9,142.4c12.6,0,13.3-6,13.3-17.9V77.5c0-11.5-1.3-16.2-13.4-16.2h-4.9v81.1H182.9z"/>
</g>
</svg>
